<svg xmlns="http://www.w3.org/2000/svg" xml:space="preserve" width="800" height="800" viewBox="0 0 612 612"><path d="M547.624 94.812C497.053 35.875 423.508 2.076 345.836 2.076c-77.757 0-151.31 33.808-201.754 92.703-41.581 48.204-64.485 109.831-64.485 173.538 0 11.554.776 23.034 2.257 34.383h35.293c-1.068-7.089-1.921-14.221-2.327-21.424h81.782c.193 7.267.718 14.343 1.23 21.424h26.104c-.571-7.078-1.105-14.178-1.323-21.424h110.198v61.121c5.837 2.571 11.232 6.17 15.901 10.782l10.081 9.976v-81.88h110.206c-1.096 36.487-6.783 71.046-15.925 101.606-27.467-7.021-56.593-11.062-86.832-12.356l29.059 28.752c16.918 1.897 33.478 4.661 49.234 8.533-3.892 9.934-8.234 19.179-12.864 27.859 7.345 8.957 11.586 20.249 11.974 31.864 10.185-15.285 19.166-32.924 26.628-52.583 14.32 4.696 27.569 10.225 39.692 16.512a231.33 231.33 0 0 1-66.233 46.615v37.769c39.653-15.683 75.398-40.858 103.867-73.982C589.129 393.718 612 332.091 612 268.316c0-63.767-22.871-125.393-64.376-173.504zM196.602 255.291h-81.778a230.799 230.799 0 0 1 49.354-130.088c14.821 8.143 31.231 15.127 48.95 20.985-9.629 32.708-15.475 69.615-16.526 109.103zm24.73-133.646c-14.269-4.709-27.492-10.239-39.611-16.513 22.29-22.508 48.73-40.014 77.655-51.659-14.993 18.368-27.902 41.444-38.044 68.172zm111.479 133.646H222.613c1.096-36.476 6.78-71.025 15.917-101.578 29.803 7.567 61.407 11.825 94.28 12.715v88.863h.001zm0-115.342c-29.606-.845-58.756-4.566-85.744-11.161C264.58 84.069 290.079 51.1 319.088 38.3c4.551-.527 9.122-.947 13.722-1.205l.001 102.854zm243.961 115.342H495.01c-1.05-39.48-6.894-76.383-16.521-109.087 17.774-5.88 34.204-12.867 49.008-20.997 29.41 37.23 46.6 82.624 49.275 130.084zm-217.978-218.2c4.597.256 9.163.677 13.711 1.204 29.022 12.795 54.528 45.775 72.047 90.51-26.982 6.59-56.138 10.308-85.758 11.147V37.091zm0 218.2v-88.862c32.879-.885 64.493-5.138 94.294-12.697 9.134 30.549 14.816 65.091 15.912 101.559H358.794zm73.444-201.814c28.918 11.646 55.371 29.154 77.701 51.667-12.11 6.257-25.348 11.786-39.654 16.512-10.142-26.732-23.054-49.809-38.047-68.179zm95.282 357.932c-14.827-8.172-31.273-15.162-49.043-21.001 9.634-32.716 15.482-69.635 16.533-109.134h81.766c-2.663 47.472-19.842 92.878-49.256 130.135zm-109.776 72.609V469.27c0-7.19-2.875-14.081-7.986-19.138l-79.312-78.47a26.92 26.92 0 0 0-18.934-7.784h-40.016V348.87c0-11.151-9.04-20.19-20.191-20.19H20.19C9.039 328.679 0 337.719 0 348.87v135.147h417.744zm-122.489-93.69a3.16 3.16 0 0 1 3.163-3.163h14.604c.808 0 1.615.337 2.221.875l62.12 59.293c2.086 1.952.673 5.451-2.153 5.451h-76.792a3.159 3.159 0 0 1-3.163-3.163v-59.293zm122.489 104.846v44.699c0 11.151-9.04 20.191-20.19 20.191H375.95c-3.903-26.787-26.988-47.381-54.852-47.381-27.795 0-50.88 20.595-54.784 47.381h-109.5c-3.903-26.787-26.989-47.381-54.784-47.381s-50.88 20.595-54.784 47.381H20.19c-11.151 0-20.19-9.04-20.19-20.191v-44.699h417.744zm-96.615 30.996c-23.128 0-41.877 18.749-41.877 41.877s18.749 41.877 41.877 41.877c23.127 0 41.877-18.749 41.877-41.877s-18.75-41.877-41.877-41.877zm0 62.815c-11.564 0-20.938-9.375-20.938-20.938s9.374-20.938 20.938-20.938c11.563 0 20.938 9.374 20.938 20.938s-9.375 20.938-20.938 20.938zM102.022 526.17c-23.127 0-41.876 18.749-41.876 41.877s18.749 41.877 41.876 41.877c23.128 0 41.877-18.749 41.877-41.877s-18.749-41.877-41.877-41.877zm0 62.815c-11.563 0-20.938-9.375-20.938-20.938s9.375-20.938 20.938-20.938c11.564 0 20.938 9.374 20.938 20.938s-9.374 20.938-20.938 20.938z"/></svg>